<?xml version="1.0" standalone="no"?>
<!DOCTYPE svg PUBLIC "-//W3C//DTD SVG 20010904//EN"
 "http://www.w3.org/TR/2001/REC-SVG-20010904/DTD/svg10.dtd">
<svg version="1.0" xmlns="http://www.w3.org/2000/svg"
 width="500.000000pt" height="500.000000pt" viewBox="0 0 500.000000 500.000000"
 preserveAspectRatio="xMidYMid meet">

<g transform="translate(0.000000,500.000000) scale(0.100000,-0.100000)"
fill="#000000" stroke="none">
<path d="M2438 4493 c6 -2 18 -2 25 0 6 3 1 5 -13 5 -14 0 -19 -2 -12 -5z"/>
<path d="M2491 4454 c0 -11 3 -14 6 -6 3 7 2 16 -1 19 -3 4 -6 -2 -5 -13z"/>
<path d="M2373 4430 c-17 -10 -35 -25 -40 -33 -4 -8 -26 -23 -48 -33 l-40 -18
40 -4 c23 -1 52 1 65 7 18 7 20 10 8 10 -22 1 -24 34 -4 50 8 7 27 16 42 20
16 4 24 10 18 14 -6 3 -24 -2 -41 -13z m-38 -70 c3 -5 -3 -10 -15 -10 -12 0
-18 5 -15 10 3 6 10 10 15 10 5 0 12 -4 15 -10z"/>
<path d="M2501 4397 c0 -15 -10 -35 -20 -44 -11 -9 -18 -19 -16 -22 2 -3 -27
-5 -65 -3 -64 3 -68 2 -87 -25 -27 -38 -41 -83 -53 -178 -6 -44 -14 -88 -17
-99 -3 -12 -1 -16 6 -12 6 4 11 0 12 -11 0 -14 2 -13 9 5 13 31 37 38 58 15 9
-10 14 -14 11 -8 -3 5 -4 16 -3 23 1 6 2 17 3 23 0 6 8 3 17 -5 8 -9 19 -16
24 -16 5 0 -1 10 -14 23 -34 34 -43 125 -17 176 19 36 39 49 98 66 12 3 30 19
40 35 l19 29 42 -37 c37 -33 81 -116 68 -129 -2 -2 -18 11 -36 29 -29 30 -31
31 -15 5 10 -15 26 -32 36 -38 22 -12 25 -52 5 -68 -12 -10 -15 -6 -19 26 -4
37 -4 36 -5 -8 -2 -51 -34 -94 -79 -105 -12 -4 -23 -10 -23 -16 0 -5 5 -6 12
-2 8 5 9 2 5 -9 -3 -10 -2 -17 3 -17 6 0 10 8 10 18 0 10 14 26 30 35 17 10
30 23 30 30 0 6 7 1 16 -11 13 -19 18 -21 32 -10 9 7 13 8 10 3 -7 -11 11 -39
28 -42 6 -1 3 19 -7 50 -10 29 -19 70 -19 92 0 73 -19 117 -70 167 -27 25 -50
57 -53 70 -4 21 -4 20 -6 -5z m-101 -99 c-58 -31 -83 -77 -74 -140 4 -32 2
-48 -5 -48 -6 0 -11 -13 -11 -29 0 -16 -6 -31 -15 -34 -11 -5 -12 -1 -5 18 12
31 -3 33 -18 3 -9 -19 -10 -13 -6 32 8 77 31 165 50 195 14 22 24 25 72 25
l56 0 -44 -22z m200 -210 c0 -18 -2 -20 -9 -8 -6 8 -7 18 -5 22 9 14 14 9 14
-14z m-260 -5 c0 -5 -5 -15 -10 -23 -8 -12 -10 -11 -10 8 0 12 5 22 10 22 6 0
10 -3 10 -7z"/>
<path d="M2491 4319 c-1 -8 11 -26 27 -40 l27 -24 -21 25 c-12 14 -24 32 -27
40 -5 13 -6 13 -6 -1z"/>
<path d="M2490 4205 c0 -8 4 -15 10 -15 5 0 7 7 4 15 -4 8 -8 15 -10 15 -2 0
-4 -7 -4 -15z"/>
<path d="M2401 4194 c0 -11 3 -14 6 -6 3 7 2 16 -1 19 -3 4 -6 -2 -5 -13z"/>
<path d="M2470 4120 c-9 -6 -10 -10 -3 -10 6 0 15 5 18 10 8 12 4 12 -15 0z"/>
<path d="M2403 4034 c5 -5 14 -9 20 -9 7 0 11 -9 10 -20 -1 -11 0 -14 3 -7 3
6 12 12 20 12 8 0 14 5 14 10 0 6 -6 10 -12 10 -7 0 -24 3 -38 7 -15 3 -22 2
-17 -3z"/>
<path d="M2574 4015 c-9 -13 -14 -28 -12 -33 1 -5 10 6 19 24 19 40 16 44 -7
9z"/>
<path d="M2322 3940 c-1 -55 -1 -55 14 -27 9 16 13 31 10 35 -3 3 -7 -1 -7 -9
-1 -8 -5 2 -9 21 -7 32 -7 30 -8 -20z"/>
<path d="M2651 3974 c0 -11 3 -14 6 -6 3 7 2 16 -1 19 -3 4 -6 -2 -5 -13z"/>
<path d="M2254 3880 c0 -58 1 -81 3 -52 2 28 2 76 0 105 -2 28 -3 5 -3 -53z"/>
<path d="M2510 3865 c0 -54 3 -95 6 -92 7 7 6 179 -2 186 -2 2 -4 -40 -4 -94z"/>
<path d="M2571 3944 c0 -11 3 -14 6 -6 3 7 2 16 -1 19 -3 4 -6 -2 -5 -13z"/>
<path d="M2652 3920 c0 -19 2 -27 5 -17 2 9 2 25 0 35 -3 9 -5 1 -5 -18z"/>
<path d="M2402 3920 c0 -8 4 -26 8 -40 6 -20 8 -21 8 -5 0 11 -3 29 -8 40 -5
12 -8 14 -8 5z"/>
<path d="M2462 3870 c0 -14 2 -19 5 -12 2 6 2 18 0 25 -3 6 -5 1 -5 -13z"/>
<path d="M2300 3860 c-6 -11 -8 -20 -6 -20 3 0 10 9 16 20 6 11 8 20 6 20 -3
0 -10 -9 -16 -20z"/>
<path d="M2391 3864 c0 -11 3 -14 6 -6 3 7 2 16 -1 19 -3 4 -6 -2 -5 -13z"/>
<path d="M2642 3840 c0 -14 2 -19 5 -12 2 6 2 18 0 25 -3 6 -5 1 -5 -13z"/>
<path d="M2471 3804 c0 -11 3 -14 6 -6 3 7 2 16 -1 19 -3 4 -6 -2 -5 -13z"/>
<path d="M2384 3779 c-3 -6 -1 -16 4 -21 8 -8 11 -5 9 11 -1 24 -3 25 -13 10z"/>
<path d="M2530 3776 c0 -2 8 -10 18 -17 15 -13 16 -12 3 4 -13 16 -21 21 -21
13z"/>
<path d="M2609 3763 c-13 -16 -12 -17 4 -4 16 13 21 21 13 21 -2 0 -10 -8 -17
-17z"/>
<path d="M2260 3761 c0 -6 4 -13 10 -16 6 -3 7 1 4 9 -7 18 -14 21 -14 7z"/>
<path d="M2155 3567 c-16 -5 -42 -8 -58 -8 -29 1 -83 -22 -89 -38 -1 -5 -28
-18 -58 -28 -51 -17 -56 -21 -65 -59 -14 -56 -28 -70 -85 -84 -62 -15 -84 -39
-78 -82 8 -51 -4 -69 -63 -97 l-54 -26 0 -66 c0 -64 -2 -68 -37 -103 -45 -43
-48 -73 -13 -106 27 -26 31 -46 14 -83 -19 -41 2 -62 88 -91 42 -14 78 -24 80
-22 3 2 -1 41 -8 86 -15 105 -7 272 15 325 34 80 112 134 193 135 62 0 93 -16
146 -76 57 -63 84 -79 150 -89 44 -7 47 -6 47 14 0 12 -7 33 -16 47 -16 23
-16 27 1 64 10 22 21 40 25 40 3 0 16 9 28 20 19 18 21 28 16 63 -4 23 -11 44
-16 45 -4 2 -8 14 -8 26 0 12 -5 27 -12 34 -9 9 -9 15 0 24 16 16 62 -6 69
-32 4 -16 11 -18 32 -14 45 11 48 23 13 50 -17 14 -32 33 -32 43 0 23 -19 41
-45 41 -11 0 -38 10 -60 21 -57 31 -86 37 -120 26z"/>
<path d="M2905 3546 c-42 -18 -101 -87 -129 -149 -13 -29 -40 -76 -60 -106
-39 -57 -45 -94 -21 -127 13 -19 12 -23 -10 -44 -13 -12 -29 -36 -36 -53 -7
-17 -28 -53 -46 -80 -45 -67 -45 -117 -2 -158 18 -16 29 -33 25 -36 -3 -4 -29
-6 -56 -4 -56 3 -117 -21 -168 -65 -27 -24 -34 -40 -42 -89 -14 -84 -12 -195
3 -225 11 -21 20 -25 59 -25 28 0 53 -6 64 -16 11 -9 33 -21 49 -26 l30 -10
-36 -12 c-54 -17 -83 -56 -118 -160 -30 -88 -31 -94 -15 -112 23 -25 7 -62
-36 -84 -41 -21 -56 -14 -76 34 -9 22 -23 42 -32 45 -49 14 -356 76 -377 76
-14 0 -25 -6 -25 -12 0 -22 90 -332 99 -341 11 -11 331 -99 349 -95 8 2 -61
23 -153 48 -92 24 -174 49 -181 55 -13 9 -107 315 -100 323 2 1 25 -2 51 -8
27 -6 54 -9 60 -6 17 6 237 -42 249 -54 6 -6 18 -10 29 -10 10 0 16 -4 13 -9
-7 -11 41 -173 53 -180 5 -3 18 -39 30 -78 23 -76 38 -97 28 -40 -3 17 -3 27
-1 20 3 -7 13 -9 22 -6 15 6 15 5 3 -10 -7 -9 -10 -17 -5 -17 13 1 41 24 42
35 0 6 11 13 24 17 13 3 17 6 11 7 -7 1 -13 6 -13 12 0 7 10 9 26 5 20 -5 24
-3 22 11 -2 15 3 17 29 15 24 -2 33 2 37 16 5 16 13 18 37 13 16 -3 29 -11 27
-16 -2 -6 -7 -9 -12 -7 -4 1 -58 -25 -119 -60 -61 -34 -105 -64 -98 -66 6 -2
17 0 24 5 7 6 44 26 82 47 70 37 68 34 -22 -30 -26 -19 -43 -34 -37 -34 14 0
139 89 139 100 0 4 4 12 9 17 5 5 6 2 1 -6 -5 -9 -3 -12 6 -9 8 3 13 10 12 16
-2 6 4 9 12 6 8 -4 17 1 21 10 3 9 11 16 18 16 6 0 27 8 46 19 19 10 53 24 75
31 62 19 85 46 85 97 0 40 2 43 28 43 34 0 52 16 52 46 0 12 7 27 14 34 8 6
23 31 32 56 16 42 34 59 34 31 0 -7 7 -23 16 -35 13 -19 18 -21 31 -10 12 10
14 26 9 83 -6 68 -5 71 28 120 136 197 161 259 117 287 -15 9 -17 17 -11 40 5
15 6 52 3 81 -5 48 -3 56 20 79 14 14 30 43 36 64 14 54 -1 230 -21 250 -11
11 -14 28 -11 58 4 32 -4 71 -31 153 -40 120 -76 167 -148 198 -45 18 -132 19
-173 1z m153 -183 c33 -5 46 -12 62 -38 24 -38 27 -105 6 -105 -12 0 -12 5 -3
30 22 57 -33 112 -96 96 -17 -4 -34 -20 -45 -43 l-19 -36 -11 31 c-6 17 -21
36 -34 43 l-23 12 30 14 c17 7 44 10 60 8 17 -3 49 -8 73 -12z m-140 -39 c46
-32 9 -114 -52 -114 -22 0 -66 33 -66 50 0 14 64 77 80 79 9 0 26 -6 38 -15z
m185 -16 c22 -26 22 -43 -3 -68 -38 -38 -110 -15 -110 35 0 28 27 64 37 49 5
-6 19 -14 33 -18 l25 -7 -25 21 -25 21 25 -6 c14 -4 33 -16 43 -27z m72 -53
c0 -16 -6 -30 -12 -32 -9 -3 -13 7 -13 32 0 25 4 35 13 33 6 -3 12 -17 12 -33z
m-376 -26 c15 -49 12 -54 -17 -33 -28 20 -30 74 -2 74 4 0 12 -18 19 -41z
m193 6 c11 -14 26 -25 35 -25 11 0 8 -8 -11 -31 -14 -17 -26 -39 -26 -49 0
-70 -147 -26 -165 50 -6 24 -4 25 37 22 37 -3 47 1 72 27 17 17 32 31 34 31 2
0 13 -11 24 -25z m167 -79 c11 -13 8 -20 -16 -40 -29 -27 -58 -33 -68 -16 -3
6 -15 10 -26 10 -13 0 -18 6 -16 21 5 27 18 35 71 38 28 1 47 -3 55 -13z
m-349 -121 c0 -14 -57 -31 -67 -21 -4 3 2 6 13 7 18 0 18 1 -1 9 -19 8 -19 9
3 9 13 1 22 7 22 17 0 14 3 14 15 4 8 -7 15 -18 15 -25z m346 10 c-11 -8 -25
-15 -30 -15 -6 1 0 7 14 15 32 19 40 18 16 0z m-96 -23 c0 -12 -3 -12 -15 -2
-8 7 -15 13 -15 15 0 1 7 2 15 2 8 0 15 -7 15 -15z m74 -14 c-3 -4 -9 -8 -15
-8 -5 0 -9 4 -9 8 0 5 7 9 15 9 8 0 12 -4 9 -9z m-414 -226 c0 -14 -23 -32
-42 -32 -23 0 -23 16 0 29 21 13 42 14 42 3z m-103 -8 c11 -3 23 -14 26 -25 4
-13 14 -19 34 -19 26 0 28 -3 28 -38 0 -43 30 -89 63 -98 24 -7 42 -40 42 -77
0 -16 -3 -18 -9 -8 -6 10 -12 4 -21 -23 -6 -20 -15 -34 -20 -31 -9 6 -7 40 5
67 9 23 -12 58 -35 58 -15 0 -20 7 -20 24 0 14 -4 27 -9 30 -5 3 -7 -16 -5
-42 2 -37 1 -40 -4 -14 -4 18 -11 32 -15 32 -5 -1 -30 19 -57 44 -27 25 -52
46 -55 46 -3 0 -5 -24 -4 -52 0 -29 3 -47 6 -40 4 9 8 10 18 2 16 -13 30 3 21
25 -8 23 0 18 38 -22 29 -31 36 -46 36 -80 0 -31 -4 -43 -14 -43 -21 0 -30
-19 -16 -35 17 -20 37 -8 44 26 3 16 9 43 12 59 4 20 12 30 24 30 36 0 34 -64
-3 -87 -20 -13 -57 -71 -54 -85 2 -7 2 -10 -1 -5 -2 4 -17 -4 -34 -18 -34 -29
-72 -32 -125 -10 -33 14 -35 16 -19 28 27 20 16 52 -15 50 -20 -1 -28 5 -37
31 -14 37 -15 92 -2 121 l9 20 2 -20 c1 -11 1 -28 0 -39 -1 -14 2 -16 12 -8
16 13 21 132 5 132 -5 0 -8 -7 -5 -14 4 -10 1 -13 -7 -10 -9 4 -18 -15 -30
-60 -16 -63 -15 -68 4 -123 24 -69 25 -77 5 -69 -8 3 -15 0 -15 -7 0 -7 -14 4
-30 23 -30 35 -30 35 -24 130 7 124 16 150 62 180 67 45 130 60 189 44z m204
-21 c38 5 40 4 25 -12 -12 -13 -13 -20 -4 -29 7 -7 17 -12 24 -12 8 0 10 -9 5
-27 -5 -20 -16 -30 -37 -34 -17 -4 -21 -7 -9 -8 25 -1 9 -17 -27 -26 -38 -10
-78 31 -78 79 0 19 5 38 10 41 6 3 10 18 10 32 0 25 1 26 20 8 15 -13 30 -16
61 -12z m49 -195 c0 -21 9 -61 20 -90 28 -76 36 -191 15 -212 -35 -34 -53 -38
-131 -25 -73 13 -108 9 -168 -16 -14 -6 -18 -5 -14 6 10 30 51 39 162 37 96
-1 110 1 122 17 8 10 11 21 8 24 -3 3 -9 0 -13 -7 -6 -10 -10 -10 -20 2 -7 8
-25 18 -41 21 -37 8 -58 31 -42 47 9 9 20 4 45 -20 38 -37 61 -44 27 -8 -20
23 -47 112 -30 101 4 -3 15 4 25 15 11 12 13 20 6 20 -8 0 -10 12 -7 38 4 29
4 32 -3 12 -8 -23 -9 -23 -10 -4 -1 12 -4 35 -7 51 -5 24 -2 31 18 40 29 13
38 2 38 -49z m-140 -103 c-7 -9 -15 -13 -18 -10 -3 2 1 11 8 20 7 9 15 13 18
10 3 -2 -1 -11 -8 -20z m94 3 c-3 -5 -10 -6 -15 -3 -5 4 -14 -6 -19 -22 -20
-55 -38 -78 -64 -78 -23 -1 -24 0 -10 27 8 15 14 34 14 43 0 8 8 15 18 15 10
0 26 6 36 13 21 15 48 18 40 5z m-27 -70 c-3 -8 -6 -5 -6 6 -1 11 2 17 5 13 3
-3 4 -12 1 -19z m-97 -8 c-6 -11 -12 -20 -14 -20 -2 0 -2 9 1 20 3 11 9 20 15
20 5 0 4 -9 -2 -20z m-16 -67 c-25 -18 -114 -18 -114 1 0 7 13 19 30 26 16 7
34 18 40 25 9 11 16 8 37 -13 24 -24 25 -26 7 -39z m394 -145 l-4 -33 -17 38
c-17 36 -17 39 0 61 l18 24 3 -29 c2 -16 2 -44 0 -61z m-378 -13 c0 -9 7 -18
15 -21 22 -9 9 -21 -21 -21 -14 0 -29 -4 -33 -9 -10 -15 -35 -10 -49 9 -15 20
-8 39 13 31 8 -4 12 -11 8 -17 -4 -7 0 -8 11 -4 10 4 22 7 27 7 5 0 9 9 9 20
0 11 5 20 10 20 6 0 10 -7 10 -15z m-175 -41 c23 -15 25 -15 25 0 0 10 8 16
23 16 18 0 19 -2 7 -10 -13 -8 -12 -10 5 -10 28 0 6 -16 -32 -23 -20 -4 -33
-2 -37 6 -2 7 -5 4 -5 -5 -1 -25 -18 -22 -24 4 -6 20 -1 38 9 38 3 0 16 -7 29
-16z m-65 -103 c0 -10 3 -32 6 -49 5 -24 2 -33 -17 -45 -28 -18 -81 -28 -97
-18 -23 14 -16 40 18 63 19 13 39 34 45 46 12 27 45 30 45 3z m410 -40 c0 -21
-6 -45 -12 -54 -12 -15 -187 -92 -193 -85 -2 2 -6 18 -10 36 -5 26 -3 33 12
39 37 14 121 75 126 92 3 13 12 16 41 13 34 -4 36 -6 36 -41z m-536 -90 c-7
-7 -12 3 -18 34 l-6 30 14 -30 c8 -16 12 -32 10 -34z m176 44 c-7 -8 -17 -15
-22 -15 -6 0 -5 7 2 15 7 8 17 15 22 15 6 0 5 -7 -2 -15z m40 7 c0 -5 -12 -19
-27 -33 l-26 -24 19 33 c17 30 34 42 34 24z m20 -17 c-23 -24 -23 -25 -3 -25
12 0 23 -8 26 -20 6 -23 0 -24 -40 -9 -15 5 -23 13 -18 17 6 4 11 14 13 22 5
20 22 40 35 40 6 0 0 -11 -13 -25z m50 10 c0 -2 -10 -10 -22 -16 -21 -11 -22
-11 -9 4 13 16 31 23 31 12z m-152 -29 c1 -20 -2 -22 -25 -18 l-26 5 24 18
c13 10 24 19 24 19 0 0 2 -11 3 -24z m171 -17 c14 -41 14 -39 -9 -39 -21 0
-38 40 -25 59 11 19 23 12 34 -20z m-209 -25 c-14 -16 -91 2 -84 21 4 9 16 10
49 2 34 -8 42 -13 35 -23z m45 -4 c-3 -5 -13 -10 -21 -10 -8 0 -12 5 -9 10 3
6 13 10 21 10 8 0 12 -4 9 -10z m43 -11 c-7 -5 -20 -8 -28 -8 -10 0 -11 2 -2
6 6 2 10 8 7 13 -3 4 4 6 16 3 16 -4 17 -8 7 -14z m-111 -16 c-7 -6 -67 9 -67
17 0 5 16 3 35 -3 19 -6 33 -12 32 -14z m153 7 c-8 -5 -22 -10 -30 -10 -13 0
-13 1 0 10 8 5 22 10 30 10 13 0 13 -1 0 -10z m-115 -10 c-3 -5 -11 -10 -16
-10 -6 0 -7 5 -4 10 3 6 11 10 16 10 6 0 7 -4 4 -10z m-40 -31 c-7 -10 -48 4
-53 19 -2 8 5 9 27 1 17 -6 29 -15 26 -20z m80 21 c-3 -5 -11 -10 -16 -10 -6
0 -7 5 -4 10 3 6 11 10 16 10 6 0 7 -4 4 -10z m-40 -30 c-3 -5 -10 -10 -16
-10 -5 0 -9 5 -9 10 0 6 7 10 16 10 8 0 12 -4 9 -10z m-51 -21 c-8 -14 -34
-10 -34 5 0 9 7 12 20 9 11 -3 17 -9 14 -14z m31 -9 c-3 -5 -11 -10 -16 -10
-6 0 -7 5 -4 10 3 6 11 10 16 10 6 0 7 -4 4 -10z"/>
<path d="M2865 3319 c-11 -17 -2 -18 19 -3 17 12 17 14 4 14 -9 0 -20 -5 -23
-11z"/>
<path d="M2873 3265 c2 -5 10 -10 17 -10 7 0 15 5 17 10 2 6 -6 11 -17 11 -11
0 -19 -5 -17 -11z"/>
<path d="M3030 3258 c0 -4 7 -8 15 -8 8 0 15 4 15 8 0 5 -7 9 -15 9 -8 0 -15
-4 -15 -9z"/>
<path d="M2920 3184 c0 -10 41 -23 54 -18 27 10 18 19 -19 20 -19 0 -35 -1
-35 -2z"/>
<path d="M3060 3150 c0 -5 5 -10 11 -10 5 0 7 5 4 10 -3 6 -8 10 -11 10 -2 0
-4 -4 -4 -10z"/>
<path d="M3120 3149 c0 -5 5 -7 10 -4 6 3 10 8 10 11 0 2 -4 4 -10 4 -5 0 -10
-5 -10 -11z"/>
<path d="M2497 2683 c-9 -14 2 -91 13 -98 4 -3 5 17 3 43 -6 62 -8 68 -16 55z"/>
<path d="M2526 2653 c4 -21 11 -45 16 -53 7 -11 8 -8 4 10 -3 14 -6 37 -6 53
0 15 -5 27 -10 27 -7 0 -8 -14 -4 -37z"/>
<path d="M2620 2548 c0 -17 18 -44 24 -37 8 7 -5 49 -15 49 -5 0 -9 -6 -9 -12z"/>
<path d="M2497 2500 c6 -22 23 -38 23 -21 0 17 -12 41 -20 41 -5 0 -6 -9 -3
-20z"/>
<path d="M2580 2434 c-32 -12 -33 -13 -9 -13 15 -1 32 6 39 14 7 8 11 14 9 14
-2 -1 -20 -7 -39 -15z"/>
<path d="M2730 2666 c0 -2 7 -9 15 -16 9 -7 15 -8 15 -2 0 5 -7 12 -15 16 -8
3 -15 4 -15 2z"/>
<path d="M2540 3393 c-37 -25 -50 -46 -45 -67 2 -11 -1 -26 -7 -33 -8 -10 -8
-17 0 -25 8 -8 14 -4 21 15 6 15 15 27 20 27 14 0 61 45 61 59 0 6 8 11 17 11
10 0 13 3 8 9 -21 19 -51 20 -75 4z"/>
<path d="M2410 3240 c0 -5 7 -10 15 -10 8 0 15 5 15 10 0 6 -7 10 -15 10 -8 0
-15 -4 -15 -10z"/>
<path d="M2469 3061 c-58 -58 -98 -105 -93 -110 5 -5 32 -16 61 -25 28 -10 63
-26 77 -37 21 -17 26 -18 26 -5 0 35 35 115 75 171 43 60 43 61 25 85 -16 21
-20 22 -35 10 -14 -11 -18 -11 -25 -1 -6 10 -36 -14 -111 -88z"/>
<path d="M2050 3116 c0 -2 7 -7 16 -10 8 -3 12 -2 9 4 -6 10 -25 14 -25 6z"/>
<path d="M2090 3097 c0 -1 35 -36 78 -77 l77 -75 -75 78 c-69 71 -80 82 -80
74z"/>
<path d="M2320 2867 c0 -3 12 -12 26 -22 15 -9 23 -12 20 -6 -7 11 -46 35 -46
28z"/>
<path d="M1836 2771 c-4 -5 3 -7 14 -4 23 6 26 13 6 13 -8 0 -17 -4 -20 -9z"/>
<path d="M1918 2773 c7 -3 16 -2 19 1 4 3 -2 6 -13 5 -11 0 -14 -3 -6 -6z"/>
<path d="M2042 2698 c60 -56 144 -106 188 -113 28 -5 25 -2 -15 12 -52 19 -85
40 -170 106 l-50 39 47 -44z"/>
<path d="M2288 2573 c12 -2 30 -2 40 0 9 3 -1 5 -23 4 -22 0 -30 -2 -17 -4z"/>
<path d="M2055 1959 c-4 -6 -4 -13 -1 -16 3 -4 -1 -15 -11 -25 -13 -15 -14
-23 -5 -43 15 -32 55 -42 87 -21 39 26 28 76 -17 76 -11 0 -18 7 -18 20 0 21
-24 27 -35 9z"/>
<path d="M970 1105 c0 -51 3 -65 15 -65 9 0 15 9 15 25 0 21 5 25 29 25 39 0
57 23 43 55 -10 21 -18 25 -57 25 l-45 0 0 -65z m68 22 c2 -12 -3 -17 -17 -17
-15 0 -21 6 -21 21 0 25 33 22 38 -4z"/>
<path d="M1170 1105 l0 -65 50 0 c28 0 50 5 50 10 0 6 -16 10 -35 10 -24 0
-35 5 -35 15 0 10 10 15 30 15 20 0 30 5 30 15 0 10 -10 15 -30 15 -20 0 -30
5 -30 15 0 10 11 15 35 15 19 0 35 5 35 10 0 6 -22 10 -50 10 l-50 0 0 -65z"/>
<path d="M1350 1159 c0 -6 9 -13 20 -16 17 -4 20 -14 20 -54 0 -37 4 -49 15
-49 11 0 15 12 15 50 0 43 3 50 20 50 11 0 20 7 20 15 0 12 -13 15 -55 15 -33
0 -55 -4 -55 -11z"/>
<path d="M1562 1158 c-22 -22 -13 -46 23 -59 19 -7 35 -16 35 -20 0 -15 -22
-21 -33 -10 -16 16 -37 14 -37 -4 0 -32 92 -31 104 1 8 22 -1 34 -42 51 -23
10 -31 18 -24 25 6 6 16 5 30 -3 25 -16 40 -5 22 16 -15 18 -61 20 -78 3z"/>
<path d="M1860 1105 c0 -51 3 -65 15 -65 9 0 15 9 15 25 0 21 5 25 30 25 37 0
40 18 3 22 -39 4 -40 26 -2 30 56 5 48 28 -10 28 l-51 0 0 -65z"/>
<path d="M2062 1158 c-7 -7 -12 -30 -12 -53 0 -49 13 -65 55 -65 42 0 55 16
55 65 0 23 -5 46 -12 53 -16 16 -70 16 -86 0z m66 -47 c4 -38 -7 -54 -31 -45
-17 6 -24 63 -10 78 17 16 38 -1 41 -33z"/>
<path d="M2260 1105 c0 -51 3 -65 15 -65 9 0 15 9 15 25 0 14 5 25 10 25 6 0
16 -11 22 -25 6 -14 20 -25 31 -25 19 0 19 1 2 27 -12 18 -14 28 -7 31 16 5
15 45 0 60 -7 7 -29 12 -50 12 l-38 0 0 -65z m65 25 c0 -8 -8 -16 -17 -18 -13
-2 -18 3 -18 18 0 15 5 20 18 18 9 -2 17 -10 17 -18z"/>
<path d="M2607 1163 c-2 -5 -12 -32 -22 -61 -17 -54 -14 -75 7 -54 15 15 68
16 68 2 0 -5 7 -10 16 -10 9 0 14 6 12 13 -3 6 -13 36 -22 65 -13 38 -23 52
-36 52 -10 0 -21 -3 -23 -7z m33 -59 c0 -8 -6 -14 -14 -14 -9 0 -12 7 -9 20 6
22 23 18 23 -6z"/>
<path d="M2780 1105 l0 -65 43 0 c54 0 67 13 67 65 0 52 -13 65 -67 65 l-43 0
0 -65z m64 39 c22 -8 22 -70 0 -78 -24 -9 -34 2 -34 38 0 43 7 50 34 40z"/>
<path d="M2996 1148 c-33 -46 -7 -108 44 -108 32 0 60 31 60 65 0 34 -28 65
-60 65 -18 0 -34 -8 -44 -22z m65 -22 c8 -17 8 -29 -1 -45 -15 -29 -34 -22
-38 13 -7 55 19 76 39 32z"/>
<path d="M3200 1105 c0 -51 3 -65 15 -65 9 0 15 9 15 24 0 21 6 25 33 28 25 2
33 8 35 26 5 34 -15 52 -59 52 l-39 0 0 -65z m65 25 c0 -8 -8 -16 -17 -18 -13
-2 -18 3 -18 18 0 15 5 20 18 18 9 -2 17 -10 17 -18z"/>
<path d="M3380 1159 c0 -6 9 -13 20 -16 17 -4 20 -14 20 -54 0 -37 4 -49 15
-49 11 0 15 12 15 50 0 43 3 50 20 50 11 0 20 7 20 15 0 12 -13 15 -55 15 -33
0 -55 -4 -55 -11z"/>
<path d="M3580 1105 c0 -51 3 -65 15 -65 12 0 15 14 15 65 0 51 -3 65 -15 65
-12 0 -15 -14 -15 -65z"/>
<path d="M3726 1154 c-9 -8 -16 -31 -16 -49 0 -18 7 -41 16 -49 18 -19 65 -21
82 -4 16 16 16 90 0 106 -17 17 -64 15 -82 -4z m62 -44 c4 -40 -11 -59 -33
-40 -18 15 -20 51 -3 68 19 19 33 9 36 -28z"/>
<path d="M3920 1105 c0 -50 3 -65 14 -65 10 0 16 13 18 38 l3 37 23 -37 c36
-59 52 -50 52 27 0 51 -3 65 -15 65 -11 0 -15 -11 -15 -37 l0 -38 -25 38 c-40
57 -55 50 -55 -28z"/>
</g>
</svg>
